<svg width="109" height="89" viewBox="0 0 109 89" fill="none" xmlns="http://www.w3.org/2000/svg">
<path d="M84.0313 27.4186C86.3897 27.2438 88.1475 28.1089 87.7374 30.7222C86.8383 36.441 71.2046 45.9662 66.9895 50.3242C65.4239 56.6845 61.326 61.5796 56.5524 65.9304C56.1825 66.2674 54.7305 67.1722 54.6408 67.5164C54.4851 68.1148 55.8438 68.8303 56.1972 69.2088C60.2383 73.5344 51.9051 78.4006 48.5488 79.965C44.5772 81.8178 38.6024 83.2308 34.2207 82.7316C32.7466 82.5639 31.0199 81.7078 31.5638 79.9794C31.9391 78.7863 35.3632 77.95 36.5095 77.431C37.9798 76.7677 39.9153 75.5241 40.5781 74.0174C42.0595 70.6525 38.0293 68.1004 37.143 65.1878C36.7475 63.8902 36.5388 62.369 37.0808 61.0858C40.0453 59.4313 43.3247 58.1967 46.324 56.5548C47.322 56.0087 48.8454 55.2084 49.6969 54.5272C50.2352 54.0964 51.0427 53.5431 50.1125 53.0997C49.6804 52.988 47.8731 54.4425 47.311 54.7669C44.3044 56.5061 37.3023 60.2639 34.0211 60.491C30.8533 60.7109 27.4365 59.7647 29.4635 56.0051C31.3093 52.5825 39.0162 47.7342 42.5392 45.7571C43.3595 45.2957 45.381 43.9566 46.2068 44.1783C46.855 44.3531 47.6204 45.0236 48.243 45.2903C57.0157 49.0427 66.9034 45.6724 70.7743 36.9744C71.2632 35.875 71.4976 34.4188 71.9627 33.4852C72.9441 31.5152 81.6454 27.597 84.0294 27.4204L84.0313 27.4186Z" fill="#5DBB46"/>
<path d="M35.6911 63.8559C35.7644 64.6706 36.4876 64.6706 35.5172 65.5825C34.1603 66.8586 31.6976 68.0733 30.1009 69.2214C27.8413 70.8489 25.8528 72.8675 23.6793 74.4589C21.9453 75.7314 22.3499 74.2931 21.4106 73.2514C20.2369 71.9483 18.1641 72.8224 16.6718 72.9107C14.5954 73.0315 11.8854 73.0261 10.849 70.8813C9.95542 69.0322 10.664 66.7288 8.18111 66.089C6.69428 65.7069 4.58672 66.0601 3.81767 64.3461C2.18985 60.7217 7.42122 58.2165 10.0396 57.063C16.5619 54.1883 24.2597 52.3878 31.097 50.1872C32.1443 49.8501 34.1457 48.8733 35.0814 48.7579C35.356 48.7237 35.3762 48.7381 35.3396 49.0139C32.95 51.0433 27.5868 54.5055 27.7955 57.993C28.0409 62.0824 32.6735 61.6571 35.6911 61.3507C35.7424 62.1654 35.6197 63.0485 35.6911 63.8523V63.8559Z" fill="#5DBB46"/>
<path d="M66.0138 18.3944C64.1681 18.5458 64.3933 16.6137 62.3205 17.0913C61.4874 17.2824 60.0042 18.6107 60.2423 19.4956C60.581 20.75 61.9305 17.8501 62.6794 18.3998C63.0035 18.6197 62.1631 20.413 61.9617 20.705C61.427 21.4818 60.4254 20.9086 59.779 21.3178C59.1491 21.7143 59.378 22.6659 59.0887 23.0534C58.9605 23.2264 58.3032 23.3562 57.9443 23.6518C56.8273 24.5745 57.2137 26.157 58.6474 25.5514C59.0942 25.3621 59.3139 24.4592 59.79 24.4988C60.6396 24.7367 61.3464 26.0164 62.3297 25.5568C62.8296 25.3225 62.6977 24.7458 63.7836 24.9873C64.2578 25.0918 65.3198 26.0867 65.2759 26.5643C65.1422 27.9827 62.6538 27.7971 61.6668 27.5916C60.3173 27.3104 59.5904 26.2921 57.9974 26.8112C54.8388 27.8367 55.5492 33.3662 58.684 34.152C59.2205 34.2872 60.2221 34.1701 60.4968 34.4368C60.9601 34.8874 60.6561 36.2319 60.7953 36.9042C60.9454 37.6269 61.7932 38.2379 61.9415 39.0543C62.1118 39.9861 61.7016 41.3252 62.5897 42.0389C63.3533 42.6517 64.2212 42.2192 64.8694 41.6839C66.4569 40.3754 65.6073 38.7119 65.8801 36.9853C66.0651 35.8156 67.3377 34.5359 67.4164 33.824C67.5391 32.6922 65.4974 31.1962 64.8859 30.2915C64.6204 29.8986 64.4995 29.4354 65.0855 29.2858C66.1402 29.0154 67.1326 32.7156 68.7384 30.9998C70.022 29.6282 67.7625 29.0965 67.6142 28.1071C67.5702 27.8133 67.8394 27.3339 68.1159 27.4528C69.0278 28.6514 70.8918 27.7592 71.1005 29.5237C72.223 39.0291 62.2857 46.4943 53.1524 45.6364C52.1215 45.539 48.9208 44.7658 48.1407 44.1873C47.4815 43.6989 48.0272 43.2123 48.0364 42.5778C48.0455 41.9777 47.8899 41.4027 47.9778 40.7557C48.2817 38.4758 52.6415 36.3563 52.5243 33.8492C52.4328 31.8685 51.8029 32.5732 50.7006 32.0073C50.0029 31.6504 49.8693 30.724 48.9665 30.4375C48.2469 30.2086 47.6024 30.4303 46.956 30.1743C46.3097 29.9184 45.9636 29.0046 45.5058 28.6694C44.4163 27.871 43.1877 28.6135 43.9677 26.202C45.2495 26.0182 46.1046 26.3498 47.2527 25.3784C47.8294 24.8899 50.2629 22.127 50.6713 21.4998C51.7754 19.8056 49.1771 20.2922 48.2286 19.6074L47.758 20.9591C46.5843 21.343 45.1561 20.2995 45.4033 19.0865C45.471 18.7549 45.8079 18.3421 45.8317 18.1114C45.872 17.6969 44.5317 17.2229 46.3023 16.6804C46.8681 17.2553 48.311 17.7185 49.0196 17.286C49.8162 16.7994 47.9649 15.9234 47.4376 16.0748C53.0242 12.6072 61.4801 13.6723 66.0156 18.4016L66.0138 18.3944ZM53.8701 20.759C54.0807 20.5896 55.7946 18.4593 55.9191 18.207C57.3455 15.3287 51.6857 15.6567 51.1949 16.675C50.9276 17.2265 51.9713 18.3421 52.2039 18.9657C52.4584 19.6434 52.5115 21.8548 53.8701 20.7608V20.759Z" fill="#5DBB46"/>
<path d="M101.385 9.99203C102.917 9.95598 106.589 10.1795 107.98 10.6445C108.951 10.9689 109.158 11.7979 108.87 12.7045L102.3 28.1467C101.158 29.576 100.059 27.9791 99.0227 27.397C97.0506 26.2885 94.5091 25.4757 92.2203 25.4559C91.0465 25.4469 88.1754 26.4201 88.7064 24.4286L95.0328 11.5024C95.8751 10.5994 100.105 10.0209 101.387 9.99022L101.385 9.99203Z" fill="#5DBB46"/>
<path d="M83.4893 5.32043C85.7104 4.6806 89.2664 6.91908 90.9052 8.30145C91.3483 8.67633 93.4577 10.7111 93.5291 11.068C93.6005 11.4249 93.5438 11.8394 93.4485 12.1908C93.2581 12.9064 92.1576 14.8456 91.7548 15.6981C90.5371 18.2664 89.065 21.7053 87.6404 24.0699C87.1039 24.962 86.853 25.2216 85.7599 24.7512C84.7729 24.3276 83.1305 22.5289 81.9055 21.817C81.3873 21.516 80.4534 21.0312 79.8986 20.8582C78.0584 20.2868 75.8245 20.914 76.8462 18.1042C77.7837 15.5251 79.9755 11.6069 81.2847 9.01697C81.64 8.31587 82.8979 5.48984 83.4875 5.31862L83.4893 5.32043Z" fill="#5DBB46"/>
<path d="M36.7091 66.7397C37.9799 69.1259 41.5486 71.7321 39.0034 74.5347C37.0991 76.6307 33.459 76.8578 31.2122 78.5989C30.9632 78.7917 30.8643 79.181 30.6483 79.2946C30.0257 79.6226 25.9388 80.43 25.0836 80.5021C15.6683 81.3078 25.4407 73.9002 27.9932 71.979C29.5808 70.7858 33.979 67.5327 35.5885 66.8622C35.9639 66.7054 36.3008 66.5955 36.7073 66.7397H36.7091Z" fill="#5DBB46"/>
<path d="M47.0843 43.4105C43.9568 42.0173 41.4446 38.9263 40.1628 35.8192C38.7767 32.4578 38.6595 28.9776 39.5494 25.4703C40.811 26.4327 41.5672 28.372 43.0522 29.0064C43.5942 29.2371 45.0389 29.3723 45.2459 29.7796C45.7622 30.7961 44.453 32.2127 44.475 33.4743C44.5043 35.1667 45.8025 35.693 46.1998 36.951C46.6338 38.3226 46.1046 40.3087 46.3939 41.9362C46.4855 42.4535 46.8938 42.9275 47.0843 43.4105Z" fill="#5DBB46"/>
</svg>
